<svg width="164" height="888" viewBox="0 0 164 888" fill="none" xmlns="http://www.w3.org/2000/svg">
<path fill-rule="evenodd" clip-rule="evenodd" d="M-9.61618 453.367C-6.75948 453.015 -3.71052 453.14 -1.05388 454.277C4.59519 456.695 6.20095 463.425 6.12348 468.895C6.03997 474.783 4.80013 481.214 9.23895 485.958C11.2794 488.139 13.8175 489.808 15.8211 492.029C17.962 494.403 19.6418 497.118 20.8855 500.035C23.1693 505.391 24.2901 511.691 22.2018 517.31C20.3631 522.257 15.737 526.722 16.7366 532.348C17.7792 538.216 23.6463 542.703 27.3144 547.074C31.4657 552.021 35.2879 558.343 35.9158 564.83C36.5179 571.047 33.8344 577.335 29.7161 582.034C21.4878 591.425 9.11933 596.028 -3.35186 596C-8.64678 595.987 -14.6417 595.746 -19.2111 592.877C-20.6233 591.99 -21.3683 590.995 -22.2079 589.612C-22.9606 588.371 -23.955 587.564 -25.1059 586.687C-27.6345 584.759 -29.4606 582.161 -30.626 579.252C-35.1514 567.956 -31.5345 553.98 -25.1999 543.949C-23.6989 541.572 -22.47 539.285 -23.1992 536.452C-23.9601 533.495 -25.8304 530.828 -27.4845 528.286C-29.1191 525.774 -30.9853 523.377 -32.2629 520.661C-33.6009 517.815 -33.9777 514.836 -33.7413 511.722C-33.297 505.872 -30.7929 500.474 -27.2478 495.769C-23.8332 491.238 -19.8238 486.902 -19.8148 480.965C-19.805 474.672 -23.9767 469.074 -22.1995 462.676C-21.4636 460.026 -19.9855 457.308 -17.6035 455.72C-15.3191 454.197 -12.3028 453.698 -9.61618 453.367Z" fill="#414833"/>
<path fill-rule="evenodd" clip-rule="evenodd" d="M-11.4828 463.427C-11.4292 462.582 -10.4351 462.075 -9.65252 462.296C-8.62241 462.586 -8.64222 463.557 -8.66941 464.422C-8.75278 467.08 -8.37127 469.663 -7.73766 472.242C-6.42077 477.605 -3.98697 482.545 -2.0588 487.696C-0.132305 492.843 0.772035 498.156 -0.358128 503.602C-1.42353 508.737 -3.09732 513.739 -4.18766 518.88C-5.14871 523.411 -6.17131 528.189 -4.70775 532.709C-3.29946 537.06 -0.185911 540.603 2.05612 544.535C6.69737 552.673 8.75643 561.702 9.03184 570.994C9.15948 575.309 9.04454 579.663 8.05198 583.895C7.48069 586.331 6.71298 589.624 4.64244 591.307C3.68767 592.082 2.05469 592.351 1.2511 591.202C0.496644 590.124 1.15851 588.456 1.39802 587.308C2.43529 582.336 2.64396 577.255 2.39563 572.207C2.15528 567.318 1.58239 562.436 0.0563545 557.766C-1.36001 553.432 -3.51173 549.54 -6.04418 545.749C-8.62472 541.885 -11.3074 538.014 -12.3737 533.436C-13.457 528.786 -12.5769 524.056 -11.4001 519.495C-10.1555 514.671 -8.52539 509.986 -6.84009 505.293C-5.19772 500.72 -4.61557 496.393 -5.52223 491.606C-7.3133 482.15 -12.1074 473.275 -11.4828 463.427Z" fill="#656D4A"/>
<path fill-rule="evenodd" clip-rule="evenodd" d="M65.8923 465.581C69.4372 466.656 72.9579 468.391 75.4848 471.111C80.8579 476.895 79.2093 485.638 76.2431 492.023C73.0504 498.896 68.2123 505.804 70.9396 513.69C72.1932 517.315 74.3012 520.599 75.4903 524.252C76.7608 528.155 77.3092 532.221 77.2393 536.295C77.11 543.777 75.1175 551.761 69.7081 557.274C64.9453 562.127 57.1575 564.962 55.3765 572.091C53.5185 579.528 58.0609 587.856 60.0778 594.902C62.3604 602.876 63.5329 612.294 60.8619 620.242C58.3026 627.859 51.8418 633.846 44.5282 637.221C29.9152 643.964 12.9487 642.926 -1.7042 636.394C-7.92527 633.62 -14.8494 630.213 -18.7155 624.461C-19.9103 622.683 -20.2636 621.126 -20.524 619.064C-20.7574 617.215 -21.5028 615.749 -22.3952 614.118C-24.356 610.536 -25.1382 606.532 -24.9802 602.508C-24.3655 586.88 -12.7664 572.348 -0.0437775 563.865C2.97074 561.855 5.61812 559.809 6.24936 556.102C6.9086 552.231 6.11076 548.124 5.50117 544.276C4.89901 540.473 3.9638 536.685 3.88876 532.829C3.81051 528.789 4.93341 525.092 6.84818 521.557C10.4453 514.917 16.2275 509.881 22.8696 506.202C29.2673 502.658 36.2616 499.654 39.3928 492.684C42.7118 485.297 40.7474 476.547 46.2003 469.958C48.4582 467.229 51.6252 464.807 55.2616 464.182C58.7489 463.583 62.5584 464.569 65.8923 465.581Z" fill="#414833"/>
<path fill-rule="evenodd" clip-rule="evenodd" d="M58.6513 477.796C59.1542 476.83 60.5838 476.756 61.3866 477.426C62.4432 478.309 61.9145 479.44 61.4322 480.443C59.9502 483.526 59.0523 486.765 58.4521 490.131C57.2037 497.13 57.4845 504.22 57.063 511.291C56.6416 518.356 54.9348 525.081 50.7736 530.894C46.8504 536.375 42.2832 541.379 38.3274 546.854C34.8408 551.68 31.1533 556.764 30.5156 562.849C29.9012 568.705 31.7069 574.508 32.2882 580.31C33.4919 592.32 31.2042 604.022 26.6884 615.096C24.5911 620.238 22.1887 625.3 18.8211 629.757C16.8824 632.323 14.2673 635.793 10.9634 636.685C9.43989 637.096 7.38547 636.555 7.04152 634.781C6.71803 633.118 8.36279 631.503 9.24171 630.278C13.047 624.974 15.9376 619.107 18.2753 613.039C20.5399 607.161 22.4103 601.118 23.0529 594.824C23.6491 588.982 23.1532 583.274 22.1581 577.485C21.1443 571.586 20.0149 565.623 21.1486 559.678C22.2996 553.641 25.7953 548.538 29.5501 543.791C33.5215 538.77 37.8729 534.115 42.293 529.479C46.6003 524.962 49.5362 520.178 50.9656 514.072C53.7899 502.009 52.7907 489.052 58.6513 477.796Z" fill="#656D4A"/>
<path fill-rule="evenodd" clip-rule="evenodd" d="M-43.5648 508C-37.6133 508 -32.3809 511.124 -28.7755 515.558C-24.555 520.748 -23.7026 527.086 -21.9888 533.272C-21.136 536.35 -19.6693 539.406 -17.099 541.498C-14.7611 543.4 -11.7932 543.78 -8.99493 544.71C-3.40242 546.567 1.11344 551.041 2.89687 556.499C5.07263 563.158 2.76809 569.873 3.16491 576.622C3.52916 582.819 9.69891 586.685 14.6629 589.656C19.5576 592.586 23.9672 595.328 25.4414 601.035C27.0047 607.088 27.5292 613.844 25.3639 619.823C21.7588 629.779 11.2083 634.163 1.01385 634.842C-8.23798 635.459 -19.8711 634.491 -26.8191 627.84C-30.9767 623.86 -32.4824 618.293 -32.2956 612.755C-32.1795 609.311 -31.4907 605.899 -30.6001 602.571C-29.969 600.213 -29.1162 597.864 -28.8732 595.427C-28.2275 588.942 -34.2789 587.697 -39.4301 585.916C-45.9757 583.654 -50.5582 579.38 -53.7447 573.425C-56.7122 567.881 -57.9573 561.658 -56.1784 555.554C-55.2698 552.437 -53.6219 549.61 -51.387 547.205C-50.4032 546.146 -49.0166 545.263 -48.1286 544.151C-47.2998 543.112 -47.4802 541.766 -47.7659 540.55C-49.0866 534.931 -53.2015 530.278 -54.6731 524.668C-56.0017 519.605 -55.2163 513.304 -50.5425 510.038C-48.5232 508.627 -46.033 508.016 -43.5648 508Z" fill="#656D4A"/>
<path fill-rule="evenodd" clip-rule="evenodd" d="M-35.4551 522.641C-29.1472 529.296 -27.4326 538.325 -26.9294 547.076C-26.6475 551.983 -26.9409 557.159 -25.4852 561.919C-24.2396 565.993 -21.3196 569.107 -18.3097 572.051C-12.2509 577.975 -5.49399 583.999 -3.72184 592.574C-2.68203 597.606 -3.3839 602.804 -1.94709 607.78C-0.640645 612.304 1.65958 616.748 4.45743 620.568C6.71011 623.645 9.645 626 12.1075 628.867C12.8588 629.743 13.935 631.031 13.6249 632.267C13.2621 633.714 11.4008 634.172 10.0803 633.945C7.00127 633.415 4.40952 630.503 2.39637 628.386C-0.547433 625.291 -3.04893 621.962 -5.08214 618.227C-7.33929 614.08 -9.15673 609.679 -9.93325 605.026C-10.7391 600.199 -10.338 595.168 -12.1781 590.535C-15.2745 582.74 -22.785 578.14 -28.2151 572.064C-34.9805 564.494 -33.9716 555.072 -33.2786 545.759C-32.8979 540.641 -32.5195 534.862 -35.1306 530.189C-36.1273 528.406 -38.3495 526.743 -38.7781 524.715C-39.1706 522.858 -37.0282 520.981 -35.4551 522.641Z" fill="#656D4A"/>
<path fill-rule="evenodd" clip-rule="evenodd" d="M-28.9996 633C-28.9996 671.058 -22.7888 691 10.0001 691C42.789 691 48.9998 671.058 48.9998 633H-28.9996Z" fill="#EDE0D4"/>
<path fill-rule="evenodd" clip-rule="evenodd" d="M80.603 761C83.4345 761 86.2574 761.057 89.0853 761.204C91.2409 761.317 94.535 760.87 96.359 762.214C98.2542 763.61 98.1236 766.467 97.8276 768.485C96.2626 779.157 92.4429 788.62 84.4522 796.181C72.1487 807.823 58.044 813.738 41.3537 816.373C29.6296 818.223 18.8064 815.654 10.1758 807.314C3.86992 819.021 -0.914055 831.977 -3.31442 845.053C-4.49861 851.505 -4.86017 857.88 -4.65197 864.449C-4.51791 868.658 -4.28585 872.856 -3.83492 877.044C-3.63942 878.864 -2.71166 881.619 -3.4241 883.339C-4.25994 885.358 -7.07874 885.554 -8.34417 883.831C-9.39735 882.398 -9.20388 879.583 -9.4202 877.887C-9.77871 875.069 -10.1108 872.25 -10.3484 869.419C-10.7344 864.837 -11.0198 860.242 -10.9989 855.643C-10.9507 845.309 -8.65393 834.935 -5.51217 825.126C0.5149 806.307 10.2941 789.583 25.5032 776.46C34.8549 768.391 45.5578 765.123 57.7008 763.369C65.2609 762.277 72.9444 761 80.603 761Z" fill="#414833"/>
<path fill-rule="evenodd" clip-rule="evenodd" d="M-15.2254 736.334C-14.692 735.946 -13.4264 735.809 -12.8376 735.692C-10.3904 735.21 -7.86941 735 -5.37449 735C2.31872 735.012 10.1369 735.767 17.7024 737.074C22.5057 737.903 28.3126 740.696 33.0908 739.179C41.4152 736.537 49.8284 736.667 57.7262 740.439C64.9468 743.888 70.4284 750.439 73.6272 757.517C74.1098 758.586 76.0679 762.519 76.6222 765.17C76.8591 765.712 77.0867 766.257 77.292 766.811C77.8745 768.384 78.3968 769.984 78.8822 771.588C79.0896 772.272 79.6112 773.782 78.9918 774.074C79.9814 775.901 80.8587 777.783 81.5894 779.726C83.7144 785.378 86.0378 791.578 86.7845 797.568C87.0612 799.786 87.0716 802.017 86.8148 804.239C86.6878 805.338 86.7403 807.546 85.9957 808.382C84.4152 810.154 83.6038 807.673 83.7819 806.491C85.1425 797.485 82.5153 789.027 79.4017 780.561C77.3884 775.087 74.0803 770.078 70.3744 765.543C67.3753 761.871 64.158 758.98 60.0468 756.546C55.0193 753.569 49.6443 751.163 44.3187 748.749C40.816 747.161 37.3092 745.615 33.7088 744.247C32.9081 743.942 31.6485 743.161 30.7608 743.158C28.8836 743.152 26.2234 744.537 24.4101 745.052C18.446 746.748 12.4056 748.919 6.2417 749.785C2.2881 750.341 -1.41602 749.715 -5.11351 748.398C-5.4914 748.264 -6.12469 747.918 -6.90065 747.424C-9.64576 746.368 -12.2426 745.039 -14.5037 743.121C-15.8065 742.017 -16.9885 740.589 -18.0665 739.282C-18.3891 738.892 -18.5318 738.444 -18.5366 738.018C-18.7809 737.891 -18.9431 737.741 -18.9796 737.567C-19.2486 736.281 -16.7958 736.258 -15.2254 736.334Z" fill="#414833"/>
<path fill-rule="evenodd" clip-rule="evenodd" d="M36.6353 835C67.0866 835 87.5956 859.841 97.2926 885.659C100.948 895.391 101.805 906.077 103.214 916.296C103.666 919.575 103.498 924.572 104.813 927.493C105.291 928.553 106.385 928.933 105.862 930.377C105.545 931.251 104.924 931.786 103.99 931.96C102.075 932.317 99.3667 930.205 97.7245 929.372C84.1033 922.457 75.1539 911.766 67.8531 898.686C63.3275 890.578 58.7356 882.162 56.0472 873.261C54.405 867.824 53.449 862.097 52.8875 856.456C52.6666 854.235 52.4526 851.961 52.4656 849.726C52.4786 847.508 53.4979 846.336 54.2305 844.406C44.0697 840.513 32.6009 839.452 22.3085 843.487C12.789 847.218 4.88132 854.428 0.453468 863.487C-0.697006 865.842 -1.58417 868.326 -2.23048 870.859C-2.65337 872.519 -2.6738 874.672 -3.45774 876.172C-5.35873 879.809 -9.3582 877.377 -8.97422 873.992C-7.90354 864.547 -2.5656 855.066 4.25695 848.499C12.8618 840.218 24.5256 835 36.6353 835Z" fill="#414833"/>
<path fill-rule="evenodd" clip-rule="evenodd" d="M107.453 239.171C103.15 240.107 98.3996 240.036 94.0171 239.958C70.5134 239.64 47.4332 228.558 32.412 210.85C19.6244 195.776 16.1082 177.033 13.5819 158.087C13.3314 156.206 13.224 154.337 13.0827 152.452C13.0523 152.047 13.007 151.687 12.9586 151.347C11.9651 150.462 11.4439 149.431 12.032 148.298C9.84331 143.528 7.99187 138.637 6.40321 133.593C1.72748 118.744 -3.02881 103.614 -0.0988846 88C0.585616 96.5923 2.02549 105.379 3.74753 113.83C3.84657 114.315 3.95354 114.796 4.06491 115.276C4.07635 115.326 4.08691 115.377 4.09836 115.427C4.70803 118.015 5.50037 120.526 6.46396 122.997C6.47408 123.024 6.48377 123.05 6.49433 123.077C6.62155 123.402 6.75669 123.726 6.89006 124.049C7.16607 124.719 7.44955 125.387 7.7502 126.052C7.85189 126.279 7.94961 126.507 8.04337 126.738C9.44627 130.162 10.0388 134.02 11.2955 137.563C11.5962 138.369 11.9105 139.172 12.2398 139.97C12.2591 140.017 12.2789 140.063 12.2987 140.11C13.1888 142.259 14.1722 144.381 15.2119 146.481C15.7771 146.904 16.0791 147.953 16.5664 148.907C16.6672 149.095 17.4552 150.348 17.6898 151.07C18.3021 152.249 18.9122 153.43 19.5289 154.607C19.5104 154.6 19.4919 154.593 19.4734 154.587C20.0906 155.717 20.7095 156.844 21.3236 157.965C21.4587 158.211 21.5952 158.458 21.7312 158.705C21.9517 159.098 22.1723 159.491 22.3924 159.883C24.4511 163.553 26.6341 167.148 28.9011 170.7C29.7101 171.967 31.643 173.784 32.0137 175.207C32.0273 175.26 32.0304 175.309 32.0388 175.36C36.9579 182.241 42.621 188.587 49.4123 193.616C48.5913 192.732 46.8464 189.733 46.3851 189.139C44.9734 187.321 43.4406 185.629 41.9022 183.916C39.147 180.847 36.457 177.681 34.0667 174.334C29.6956 168.211 25.9245 161.768 22.3598 155.194C22.3259 155.156 22.2889 155.119 22.2568 155.08C20.4652 152.881 19.3374 149.556 18.0477 147.04C23.1517 149.395 28.7954 150.928 34.0337 153.019C39.2575 155.103 44.3391 157.424 49.245 160.149C55.7656 163.771 62.5296 167.861 68.6906 172.488C75.7508 176.85 81.6837 182.853 86.9207 189.153C93.1169 196.607 98.7954 204.126 102.307 213.176C104.032 217.624 105.389 222.261 106.194 226.953C106.229 227.157 106.274 227.379 106.323 227.609C107.146 229.23 107.882 230.886 108.5 232.581C109.481 235.269 111.797 238.227 107.453 239.171Z" fill="#414833"/>
<path fill-rule="evenodd" clip-rule="evenodd" d="M161.622 138.435C157.531 142.835 151.282 145.184 145.48 146.523C122.819 151.755 99.5806 148.281 78.2926 140.026C66.6279 135.503 55.5936 128.86 45.5331 121.615C39.726 117.433 34.3178 112.706 29.9596 107.067C27.0184 103.261 24.6502 99.1342 22.6827 94.7681C20.2849 89.4471 18.0893 83.9604 16.3813 78.3824C15.7088 76.1859 11.6736 64.6382 15.3468 63.5789C15.258 63.2917 15.1888 63.0145 15.1538 62.7596C4.1676 52.0204 -4.23258 38.4012 -12.0931 25.4649C-18.9326 14.2077 -25.3574 2.74627 -30.5969 -9.32343C-37.4949 -25.2139 -43.3984 -41.597 -48.2432 -58.2128C-49.2842 -61.7838 -50.2612 -65.3714 -51.2193 -68.9667C-52.0358 -72.0333 -52.8537 -75.0996 -53.6689 -78.1666C-54.5819 -81.6038 -56.1134 -85.4501 -56.3564 -89.0206C-56.5684 -92.1299 -53.8633 -92.2764 -53.0596 -89.319C-52.0888 -85.7477 -51.278 -82.1319 -50.2875 -78.5623C-48.9724 -73.8249 -47.651 -69.0891 -46.3118 -64.3587C-37.0049 -31.499 -23.3161 -0.165649 -4.758 28.6188C2.75214 40.2672 10.7735 51.0836 20.2274 61.2802C28.5395 70.2455 37.9777 78.6036 47.4154 86.2386C56.5882 93.6578 65.9935 100.803 76.4423 106.471C84.9215 111.07 93.9194 114.705 103.047 117.912C114.64 121.986 126.178 125.909 138.268 128.3C144.553 129.542 150.884 130.492 157.189 131.621C158.323 131.824 159.529 131.997 160.64 132.279C164.347 133.219 163.849 136.039 161.622 138.435Z" fill="#656D4A"/>
<path fill-rule="evenodd" clip-rule="evenodd" d="M49.4166 56C58.8732 56 67.2881 54.7693 76.0013 51.0054C83.5225 47.7569 90.3768 43.4564 97.0316 38.7744C106.392 32.1896 113.766 24.5256 118.927 14.371C122.01 8.30465 124.272 -0.279504 122.201 -6.89621C119.762 -14.6894 113.064 -21.1889 104.244 -19.8157C98.789 -18.9674 93.7888 -15.3512 89.6431 -11.9477C84.6837 -7.87584 80.7137 -2.97984 77.4357 2.45787C72.0884 11.3279 68.9462 21.3555 64.4037 30.6243C62.2483 35.0234 60.1653 39.4539 57.5837 43.6347C56.3056 45.705 54.945 47.7556 53.0061 49.2942C51.9688 50.117 47.5951 51.5415 49.2677 53.3897C24.7445 53.0671 3.01948 34.2039 -1.68816 10.8551C-2.12663 8.67885 -2.46933 6.4849 -2.83136 4.29527C-3.05982 2.91259 -2.96755 -2.18623 -4.20168 -3.06941C-6.92346 -5.01791 -5.7794 0.901218 -5.66253 1.75339C-5.3607 3.95595 -5.03864 6.15679 -4.70078 8.35374C-2.86254 20.3035 2.44919 31.4123 11.3074 39.9345C21.4371 49.6795 35.1044 56 49.4166 56Z" fill="#414833"/>
</svg>
