<svg width="718" height="596" viewBox="0 0 718 596" fill="none" xmlns="http://www.w3.org/2000/svg">
<path fill-rule="evenodd" clip-rule="evenodd" d="M663.16 476.795C672.35 545.536 449.485 590.372 257.659 559.082C65.8342 527.791 -22.166 405.598 69.3697 340.489C160.905 275.38 653.97 408.055 663.16 476.795Z" fill="#EDE0D4"/>
<path fill-rule="evenodd" clip-rule="evenodd" d="M387.465 190.353C390.933 187.702 396.312 189.391 399.803 190.956C401.148 191.559 404.586 193.489 407.135 195.661C406.798 194.156 406.498 192.637 406.235 191.106C405.157 184.811 404.414 178.396 404.057 172.019C403.964 170.355 404.085 168.497 404.208 166.614V166.611C404.249 165.974 404.291 165.334 404.325 164.698C404.185 164.548 404.091 164.34 404.051 164.059C404.037 164.176 404.028 164.269 404.022 164.341C404.011 164.457 404.006 164.515 403.988 164.519C403.969 164.524 403.937 164.475 403.872 164.376C403.847 164.338 403.818 164.292 403.782 164.239C401.202 160.38 399.035 156.03 398.738 151.249C398.486 147.195 401.816 139.523 406.537 144.834C408.649 147.206 408.1 163.864 404.928 164.884C405.775 170.404 406.841 175.915 408.176 181.355C408.376 181.32 408.58 181.317 408.781 181.344C408.762 179.992 408.76 178.516 408.815 178.008C409.291 173.636 412.941 164.76 418.753 166.483C423.218 167.808 420.481 173.26 418.961 175.646C416.515 179.488 413.748 181.151 410.243 183.149C410.173 183.975 409.641 184.455 409.013 184.611C411.359 193.397 414.442 201.966 418.477 210.061L418.584 209.546C419.097 207.089 419.694 204.225 420.072 203.623C422.05 200.474 426.427 196.628 430.464 198.491C438.942 202.41 429.74 213.672 422.522 214.897C422.222 215.312 421.904 215.646 421.566 215.837C422.969 218.28 424.468 220.673 426.072 223.004C428.477 226.51 431.062 230.004 433.772 233.479C433.856 230.761 434.928 224.704 435.232 224.053C437.083 220.101 442.418 216.034 446.745 218.842C451.613 222.008 447.199 227.989 444.423 230.696C443.285 231.806 437.657 235.874 435.672 235.892C442.219 244.085 449.446 252.137 456.794 259.899C456.185 256.424 455.39 246.856 455.479 245.794C455.935 240.312 459.535 231.544 466.629 233.681C473.51 235.75 470.466 244.858 468.11 249.2C466.683 251.828 464.711 254.498 462.331 256.331C461.903 256.661 461.342 256.931 460.783 257.2C460.109 257.524 459.436 257.848 458.997 258.277C458.605 258.659 458.484 259.098 458.365 259.533C458.239 259.992 458.114 260.447 457.672 260.828C461.643 265.004 465.642 269.093 469.583 273.069C471.443 274.945 473.337 276.785 475.249 278.602C476.295 278.168 477.787 278.739 477.709 280.222C477.698 280.437 477.648 280.623 477.581 280.793C479.03 282.142 480.488 283.482 481.958 284.807C481.925 284.421 481.934 283.876 482.002 283.125C480.944 284.631 480.988 282.437 481.022 280.764C481.034 280.173 481.044 279.648 481.004 279.373C480.849 278.298 480.648 277.234 480.447 276.171C480.018 273.901 479.59 271.639 479.611 269.296C479.657 264.323 482.804 255.987 489.427 258.949C495.516 261.666 493.301 269.036 491.004 273.657C489.549 276.581 487.559 279.192 485.48 281.691C485.109 282.137 484.697 282.741 484.29 283.34C483.685 284.228 483.089 285.102 482.648 285.428C488.302 290.5 494.089 295.423 499.876 300.346L499.879 300.349C502.47 302.553 505.062 304.758 507.641 306.976C507.754 306.489 507.847 306.006 507.926 305.555C507.765 305.737 507.545 305.822 507.264 305.805C507.189 305.432 507.08 304.936 506.949 304.34C505.356 297.068 500.502 274.917 513.645 279.21C523.274 282.364 516.477 301.652 509.295 308.399C513.654 312.166 517.97 315.982 522.186 319.911C525.237 322.754 528.198 325.694 531.045 328.733C529.572 324.798 528.183 319.705 529.095 315.652C530.422 309.753 536.639 304.184 542.709 307.54C550.276 311.742 544.455 317.482 538.995 322.864C536.208 325.612 533.515 328.267 532.747 330.576C541.8 340.543 549.529 351.616 554.693 364.229C560.31 377.946 565.524 396.377 562.64 411.723C563.172 404.975 560.895 396.503 559.296 390.552C559.078 389.742 558.873 388.979 558.689 388.273C556.287 379.044 552.873 370.065 548.375 361.661C541.169 348.2 531.651 336.774 520.663 326.4C518.161 327.273 515.443 328.889 513.192 330.227C511.812 331.048 510.607 331.765 509.735 332.141C505.531 333.957 497.458 336.56 494.78 330.84C492.146 325.216 498.869 322.07 503.035 320.809C507.061 319.593 510.69 319.74 514.446 320.737C508.63 315.574 502.672 310.575 496.715 305.577L496.714 305.576C495.618 304.656 494.523 303.737 493.428 302.817C491.914 304.06 490.242 305.857 488.466 307.765C482.83 313.82 476.153 320.994 470.19 315.133C461.19 306.288 478.402 297.298 485.735 298C486.635 298.086 487.506 298.276 488.355 298.534C480.877 292.179 473.515 285.692 466.552 278.749C465.303 278.978 463.313 280.818 460.924 283.03C455.554 288 448.161 294.842 442.592 289.455C438.572 285.566 439.949 279.509 443.834 276.046C447.735 272.568 453.391 272.574 458.198 273.745C460.276 274.249 462.193 275.211 463.98 276.383C464.056 276.387 464.129 276.391 464.202 276.395C457.35 269.491 450.457 262.432 443.818 255.132C443.702 255.169 443.583 255.208 443.464 255.247C443.063 255.739 442.39 255.919 441.775 255.81C441.436 255.927 441.089 256.047 440.735 256.169C435.476 257.986 428.717 260.322 423.475 259.315C419.617 258.573 416.117 255.433 419.383 251.567C422.037 248.423 429.24 248.874 432.753 249.619C434.467 249.983 436.333 251.037 438.205 252.095C438.992 252.539 439.78 252.984 440.558 253.379C440.76 252.971 441.113 252.709 441.514 252.583C434.958 245.247 428.702 237.658 423.028 229.739C421.311 230.005 419.406 230.761 417.441 231.54C412.714 233.415 407.64 235.427 403.999 231.093C398.623 224.695 408.733 220.96 413.539 221.568C415.162 221.773 416.762 222.233 418.307 222.842C414.178 216.322 411.024 209.353 408.809 202.033C408.788 202.044 408.768 202.055 408.748 202.066V202.067C408.717 202.084 408.685 202.102 408.647 202.119C408.68 202.1 408.71 202.082 408.739 202.063C408.761 202.049 408.782 202.035 408.805 202.021C408.584 201.289 408.372 200.554 408.17 199.815C407.795 199.606 407.444 199.452 407.276 199.389C409.46 200.896 400.248 201.634 398.523 201.772C394.709 202.077 389.599 202.191 386.801 199.062C384.451 196.434 384.589 192.552 387.465 190.353ZM563.049 411.745C562.887 413.968 562.486 416.005 561.737 417.684C562.299 415.772 562.73 413.785 563.049 411.745Z" fill="#EDE0D4"/>
<path fill-rule="evenodd" clip-rule="evenodd" d="M214.297 48.3297C211.766 46.4142 207.838 47.6378 205.288 48.7705C204.306 49.2074 201.795 50.6041 199.933 52.1756C200.18 51.0868 200.4 49.9886 200.592 48.8814C201.382 44.3289 201.926 39.6902 202.19 35.0786C202.258 33.8758 202.17 32.532 202.081 31.1706V31.1695C202.051 30.7086 202.021 30.2457 201.997 29.7855C202.099 29.6767 202.168 29.5264 202.197 29.3229C202.207 29.4073 202.213 29.475 202.218 29.5267C202.226 29.6105 202.229 29.6525 202.243 29.6559C202.256 29.6594 202.28 29.6238 202.327 29.5524C202.345 29.5247 202.367 29.4916 202.393 29.4533C204.278 26.6614 205.862 23.5157 206.081 20.0585C206.266 17.1264 203.838 11.5801 200.389 15.4222C198.846 17.1381 199.24 29.1832 201.556 29.9203C200.935 33.9119 200.155 37.897 199.179 41.8315C199.033 41.806 198.884 41.8038 198.737 41.8238C198.751 40.8458 198.753 39.7785 198.713 39.4115C198.367 36.2503 195.705 29.8333 191.462 31.0816C188.201 32.041 190.197 35.9822 191.306 37.7071C193.09 40.4842 195.11 41.6861 197.668 43.1295C197.719 43.7264 198.108 44.0733 198.566 44.1859C196.85 50.54 194.596 56.7376 191.647 62.5921L191.569 62.2201C191.195 60.4437 190.76 58.3726 190.484 57.9377C189.042 55.6615 185.847 52.882 182.899 54.2308C176.707 57.0673 183.422 65.2075 188.692 66.0906C188.911 66.3905 189.142 66.6317 189.389 66.7699C188.364 68.5372 187.269 70.2678 186.097 71.9538C184.339 74.4899 182.451 77.0178 180.471 79.531C180.411 77.5659 179.63 73.1865 179.408 72.7161C178.058 69.859 174.165 66.9205 171.004 68.9523C167.448 71.243 170.669 75.5667 172.695 77.5232C173.525 78.3253 177.633 81.2644 179.083 81.2769C174.299 87.204 169.019 93.029 163.651 98.644C164.097 96.131 164.681 89.212 164.617 88.444C164.286 84.4805 161.66 78.1419 156.481 79.6893C151.455 81.1883 153.675 87.773 155.393 90.912C156.434 92.812 157.873 94.742 159.61 96.066C159.923 96.305 160.332 96.499 160.74 96.694C161.232 96.928 161.723 97.162 162.044 97.472C162.33 97.748 162.418 98.065 162.504 98.38C162.596 98.712 162.687 99.041 163.01 99.316C160.109 102.337 157.188 105.296 154.309 108.172C152.95 109.529 151.567 110.861 150.17 112.175C149.406 111.862 148.317 112.275 148.373 113.347C148.381 113.503 148.418 113.637 148.466 113.76C147.408 114.736 146.343 115.705 145.269 116.664C145.294 116.385 145.287 115.991 145.238 115.448C146.01 116.537 145.978 114.95 145.954 113.741C145.946 113.313 145.938 112.933 145.967 112.735C146.081 111.957 146.229 111.188 146.376 110.419C146.69 108.778 147.003 107.141 146.988 105.447C146.956 101.852 144.662 95.825 139.825 97.969C135.378 99.936 136.993 105.265 138.669 108.605C139.729 110.719 141.181 112.606 142.699 114.413C142.969 114.735 143.27 115.172 143.567 115.604C144.008 116.246 144.443 116.878 144.765 117.114C140.635 120.783 136.409 124.345 132.182 127.907H132.181L132.18 127.908C130.286 129.504 128.393 131.099 126.508 132.704C126.427 132.352 126.359 132.003 126.301 131.676C126.419 131.808 126.579 131.87 126.785 131.858C126.84 131.588 126.919 131.229 127.015 130.798C128.181 125.539 131.733 109.519 122.136 112.629C115.104 114.913 120.059 128.858 125.3 133.734C122.117 136.459 118.963 139.22 115.884 142.063C113.655 144.119 111.493 146.247 109.412 148.445C110.49 145.599 111.505 141.916 110.841 138.985C109.875 134.721 105.337 130.696 100.904 133.125C95.377 136.167 99.626 140.314 103.61 144.204C105.644 146.19 107.609 148.109 108.169 149.779C101.556 156.989 95.908 164.999 92.133 174.121C88.027 184.042 84.213 197.371 86.313 208.467C85.927 203.588 87.592 197.46 88.762 193.157C88.922 192.571 89.072 192.019 89.206 191.508C90.964 184.834 93.46 178.34 96.747 172.262C102.013 162.526 108.967 154.26 116.994 146.754C118.82 147.384 120.804 148.552 122.447 149.519C123.454 150.112 124.334 150.63 124.97 150.902C128.039 152.214 133.932 154.093 135.89 149.956C137.815 145.887 132.908 143.615 129.867 142.705C126.928 141.827 124.278 141.935 121.535 142.657C125.784 138.922 130.136 135.304 134.487 131.688C135.288 131.023 136.088 130.358 136.887 129.692C137.993 130.59 139.213 131.889 140.509 133.268C144.622 137.644 149.494 142.829 153.85 138.588C160.424 132.189 147.861 125.695 142.507 126.206C141.849 126.268 141.213 126.406 140.593 126.593C146.056 121.994 151.433 117.301 156.52 112.278C157.432 112.443 158.884 113.773 160.627 115.371H160.628C164.547 118.963 169.942 123.908 174.01 120.01C176.946 117.197 175.944 112.818 173.108 110.315C170.261 107.801 166.132 107.808 162.621 108.657C161.104 109.022 159.704 109.718 158.399 110.566C158.343 110.569 158.29 110.572 158.237 110.575C163.242 105.58 168.277 100.473 173.128 95.192C173.212 95.219 173.299 95.247 173.386 95.275C173.679 95.631 174.17 95.761 174.619 95.682C174.865 95.765 175.116 95.851 175.372 95.939L175.378 95.941C179.217 97.253 184.152 98.94 187.979 98.209C190.796 97.672 193.353 95.4 190.97 92.605C189.033 90.333 183.774 90.662 181.209 91.202C179.957 91.466 178.594 92.229 177.227 92.994C176.652 93.316 176.077 93.638 175.508 93.924C175.361 93.629 175.104 93.439 174.811 93.348C179.6 88.041 184.171 82.5514 188.317 76.823C189.57 77.015 190.961 77.5605 192.395 78.1231C195.846 79.477 199.55 80.93 202.21 77.7953C206.137 73.1664 198.757 70.4696 195.248 70.9109C194.063 71.0597 192.894 71.3933 191.766 71.8337C194.783 67.1177 197.088 62.0773 198.709 56.784C198.724 56.7918 198.739 56.7999 198.753 56.8079C198.776 56.8206 198.799 56.8333 198.827 56.8454C198.802 56.8324 198.781 56.8187 198.76 56.8051C198.744 56.795 198.728 56.785 198.711 56.7752C198.873 56.2457 199.028 55.7137 199.176 55.1798C199.45 55.0284 199.706 54.9169 199.829 54.871C198.234 55.9618 204.96 56.4918 206.219 56.591C209.004 56.81 212.734 56.8905 214.779 54.6272C216.495 52.7261 216.396 49.9187 214.297 48.3297ZM85.896 208.029C86.019 209.511 86.384 210.863 87.104 211.971C86.576 210.705 86.18 209.386 85.896 208.029Z" fill="#656D4A"/>
<path fill-rule="evenodd" clip-rule="evenodd" d="M487.822 309.77C501.474 309.062 518.359 317.031 519.815 331.871C520.873 342.653 520.546 353.405 522.183 364.172C523.492 372.776 526.261 381.036 530.038 388.874C533.67 396.411 541.203 402.827 543.162 410.879C544.411 416.01 543.712 423.227 541.99 428.245C539.896 434.347 541.009 433.865 545.182 438.985C553.359 449.018 560.723 459.307 565.93 471.29C573.43 488.55 578.348 508.725 575.564 527.618C575.21 530.017 574.79 538.627 571.486 539.229C567.796 539.902 569.522 534.978 569.719 533.387C570.974 523.238 572.09 514.367 570.575 504.059C564.732 464.288 536.201 438.085 517.623 404.331C516.602 402.59 514.446 398.445 512.947 395.711C510.58 391.393 508.201 383.179 504.997 379.977C498.963 373.947 504.511 386.071 505.686 388.385C507.173 391.313 508.808 394.425 510.332 396.99C517.302 408.882 525.082 421.862 532.28 434.121C501.147 441.214 479.221 403.785 470.866 379.178C463.982 358.905 455.746 311.505 487.822 309.77Z" fill="#414833"/>
<path fill-rule="evenodd" clip-rule="evenodd" d="M670.805 272.121C647.983 273.932 633.331 288.992 626.511 310.056C622.835 321.407 622.413 333.068 620.37 344.734C617.298 362.284 610.686 375.585 597.764 388.089C593.762 391.961 590.812 395.937 588.716 400.191C584.554 404.438 580.931 409.244 578.269 415.12C574.869 422.624 573.907 431.628 577.832 439.109C578.888 441.121 581.521 445.158 584.25 446.992C574.033 468.752 568.415 492.584 569.048 516.386C569.431 530.753 570.132 545.127 570.951 559.477C571.171 563.33 572.426 569.693 574.31 563.231C576.035 557.32 573.872 548.041 573.672 541.867C572.698 511.786 571.866 484.435 584.248 456.331C585.547 453.385 586.924 450.463 588.357 447.565C588.442 447.516 588.52 447.457 588.599 447.4C588.653 447.442 588.703 447.487 588.758 447.529C588.849 447.365 588.975 447.171 589.121 446.954C589.532 446.529 589.891 445.993 590.233 445.395C591.331 443.873 592.574 442.084 592.581 441.105C592.581 441.098 592.577 441.086 592.577 441.078C600.242 428.565 609.022 416.742 617.99 405.149C617.923 405.234 627.718 391.897 626.204 399.272C625.474 402.827 618.269 409.595 615.359 413.36C608.922 421.735 601.363 432.348 595.082 442.61C594.237 443.096 593.043 445.48 592.179 447.257C591.702 448.157 591.257 449.064 590.82 449.855C613.077 457.208 630.39 442.396 642.196 425.168C642.21 425.147 642.223 425.126 642.236 425.106C645.829 420.346 649.509 415.619 654.107 411.856C661.777 405.576 669.992 404.468 679.036 401.378C703.7 392.951 714.186 360.987 717.516 337.27C721.274 310.513 702.894 269.483 670.805 272.121Z" fill="#414833"/>
<path fill-rule="evenodd" clip-rule="evenodd" d="M625.723 197.191C602.299 221.569 590.982 255.383 582.022 287.172C572.014 322.676 565.403 358.728 565.149 395.642C564.983 419.895 564.323 444.299 565.739 468.523C566.241 477.126 567.099 485.745 568.462 494.255C568.575 494.955 571.626 513.958 574.545 509.53C576.205 507.012 571.417 489.817 571.056 486.953C569.021 470.822 568.548 454.573 568.647 438.326C568.81 411.575 568.022 384.962 570.733 358.31C571.137 354.33 571.457 350.151 572.402 346.258C573.406 342.119 572.127 343.926 575.396 342.287C578.573 340.695 582.498 340.922 585.794 338.924C598.866 330.997 605.553 310.635 610.758 297.275C616.711 281.998 620.329 265.706 623.219 249.628C625.341 237.816 626.858 226.075 627.716 214.11C627.987 210.339 628.003 206.396 628.744 202.688C628.944 201.688 629.945 199.919 629.909 199.033C629.832 197.158 628.701 196.056 628.608 194.481C627.627 195.363 626.665 196.267 625.723 197.191Z" fill="#414833"/>
<path fill-rule="evenodd" clip-rule="evenodd" d="M498 522C498 562.317 530.683 595 571 595C611.317 595 644 562.317 644 522" fill="#414833"/>
<path fill-rule="evenodd" clip-rule="evenodd" d="M621.028 458.085C639.095 456.753 659.271 471.329 667.986 486.497C675.012 498.726 673.828 514.785 669.489 527.778C666.583 536.476 660.241 548.878 649.665 548.999C636.433 549.15 635.795 532.796 635.539 523.236C635.199 510.525 633.593 499.453 623.577 490.789C622.341 489.72 621.043 488.719 619.746 487.718C618.594 486.829 617.443 485.941 616.334 485.005C616.157 484.855 615.978 484.706 615.8 484.556C612.258 481.579 608.539 478.453 608.086 473.546C607.43 466.436 611.443 465.156 617.571 466.477C617.769 466.52 618.306 466.723 619.036 467C622.166 468.186 628.844 470.718 627.581 467.692C627.105 466.552 625.368 465.648 623.175 464.971C617.501 464.354 610.733 463.638 608.787 464.066C587.792 468.672 579.617 497.755 577.446 516.233C577.212 518.227 577.023 520.228 576.857 522.232H573C573.268 517.393 573.621 512.562 574.43 507.776C577.525 489.473 587.2 462.591 608.42 459.62C609.203 459.51 612.083 459.491 615.571 459.696C617.224 458.772 619.076 458.213 621.028 458.085Z" fill="#414833"/>
<path fill-rule="evenodd" clip-rule="evenodd" d="M178.223 176.445C182.425 170.453 190.224 155.235 196.138 153.094C199.948 151.715 198.837 165.98 198.884 168.7C199.067 179.224 198.043 189.681 196.778 200.116C194.498 218.937 187.045 235.697 176.822 251.715C171.562 259.957 165.391 268.3 156.845 273.442C152.912 275.811 148.179 276.207 144.294 278.248C139.769 280.623 142.233 278.703 140.194 283.417C137.363 289.963 136.457 298.408 135.147 305.392C129.132 337.455 114.568 506.945 117.093 539.558C117.317 542.449 113.287 543.14 113.085 539.611C112.016 520.9 121.27 391.322 125.94 348.947C130.609 306.571 135.334 269.134 140.071 254.474C145.819 236.687 156.199 215.298 164.84 198.711C168.854 191.006 173.229 183.565 178.223 176.445Z" fill="#414833"/>
<path fill-rule="evenodd" clip-rule="evenodd" d="M209.414 384.278C220.349 376.25 232.186 391.401 222.29 399.43C216.82 403.868 211.101 402.29 207.882 398.591C205.792 401.139 203.836 403.803 201.956 406.052C196.229 412.909 190.817 419.928 185.644 427.111C174.898 442.035 165.689 457.801 156.06 473.278C146.558 488.554 137.132 503.908 128.519 519.571C121.223 532.841 111.498 548.452 109 563C112.79 532.146 127.172 502.49 144.298 475.291C161.285 448.314 180.779 418.853 207.081 397.564C204.404 393.627 204.33 388.008 209.414 384.278Z" fill="#656D4A"/>
<path fill-rule="evenodd" clip-rule="evenodd" d="M1.9132 309.031C8.0324 310.227 18.0312 324.07 23.0753 329.344C29.0699 335.612 34.5084 342.292 39.6349 349.292C50.6711 364.358 60.5411 380.376 68.9339 397.08C82.616 424.311 93.578 452.265 101.533 481.918C106.403 500.069 109.556 518.883 111.424 537.565C111.777 541.089 115.471 568.253 110.148 568.985C105.361 569.644 106.84 548.359 106.609 545.463C103.998 512.798 96.177 481.015 85.299 450.226C82.929 443.519 80.728 435.304 76.9381 429.268C74.2092 424.921 76.9186 426.437 72.1228 424.792C68.0049 423.378 63.3131 423.724 59.0963 421.993C49.9356 418.237 42.6006 410.944 36.1709 403.608C23.6758 389.351 13.774 373.928 8.6126 355.66C5.7495 345.532 3.1184 335.344 1.6583 324.902C1.2806 322.203 -2.0282 308.26 1.9132 309.031Z" fill="#414833"/>
<path fill-rule="evenodd" clip-rule="evenodd" d="M26.0614 78.716C49.1113 118.69 68.0528 162.601 80.283 207.076C87.694 234.023 92.876 261.675 98.025 289.126C105.997 331.632 113.538 374.134 115.683 417.395C117.841 460.906 122.108 511.092 107.861 553C114.978 510.452 108.202 465.162 107.002 422.35C106.429 401.912 104.768 381.674 102.588 361.355C100.473 341.645 97.018 322.029 93.801 302.474C92.234 292.95 90.588 283.441 88.912 273.937C88.411 271.101 88.2 262.687 86.401 260.75C84.591 258.8 75.3543 258.005 72.4544 256.574C66.6149 253.693 61.1221 249.6 56.2609 245.275C46.9418 236.984 38.8347 226.151 32.4359 215.472C17.6307 190.764 11.7116 160.61 12.0108 131.994C12.0682 126.438 21.0034 66.61 17.4149 65.7861C17.631 65.533 17.8353 65.2718 18.028 65C20.7448 69.5488 23.4108 74.1284 26.0614 78.716Z" fill="#414833"/>
<path fill-rule="evenodd" clip-rule="evenodd" d="M274.846 222.887C275.202 222.374 277.517 218.807 276.351 219.035C278.724 218.57 273.087 222.969 279 220.27C276.192 222.922 277.813 226.366 277.85 229.935C277.911 235.73 276.942 241.476 275.851 247.146C274.126 256.109 271.557 264.823 267.828 273.159C259.701 291.326 245.901 308.814 229.518 320.172C221.43 325.779 213.504 327.689 204.28 330.27C198.453 331.901 197.991 334.915 194.898 340.569C188.46 352.345 182.136 364.078 176.457 376.251C169.677 390.788 163.095 405.34 156.886 420.132C135.969 469.957 118.945 521.578 110.005 575C109.786 543.519 117.069 511.095 126.255 481.088C132.947 459.226 141.658 438.151 150.95 417.29C153.201 412.236 156.613 405.735 157.57 400.155C158.239 396.245 156.192 392.486 155.255 388.367C151.601 372.33 151.863 354.363 155.071 338.24C158.609 320.461 168.839 312.209 186.145 309.691C192.474 308.769 200.519 309.107 206.322 306.408C212.645 303.47 215.253 293.81 218.849 287.61C228.506 270.953 239.98 254.979 253.155 240.945C256.803 237.059 260.726 233.473 264.888 230.15C267.513 228.053 273.058 225.47 274.846 222.887Z" fill="#414833"/>
<path fill-rule="evenodd" clip-rule="evenodd" d="M75.845 546.729C75.3997 543.71 77.7396 541 80.791 541H142.209C145.26 541 147.6 543.71 147.155 546.729L142.408 578.918C140.961 588.73 132.541 596 122.622 596H100.378C90.459 596 82.039 588.73 80.592 578.918L75.845 546.729Z" fill="#656D4A"/>
<path fill-rule="evenodd" clip-rule="evenodd" d="M25.4177 557.456C25.4177 578.743 27.0976 596 49.6456 596C72.1935 596 73.8734 578.743 73.8734 557.456" fill="#EDE0D4"/>
<path fill-rule="evenodd" clip-rule="evenodd" d="M56.3534 544.174C55.5269 545.603 54.79 547.061 54.139 548.54C54.116 545.493 54.2845 542.424 54.7446 539.313C55.531 533.983 56.7322 528.682 57.8609 523.388C58.6721 519.584 58.6208 512.752 61.6994 509.72C62.5436 509.065 62.7468 510.351 62.7468 510.908C62.7575 511.026 62.7445 508.632 61.9251 509.049C57.0544 511.564 55.4763 519.474 53.9169 523.434C51.6418 529.215 49.7061 535.124 48.909 541.138C48.7076 542.657 48.598 544.176 48.5727 545.692C48.4071 545.287 48.2516 544.878 48.0796 544.474C45.2684 537.881 41.4747 531.447 36.7431 525.514C35.5784 524.054 20.9342 509.649 19.7878 511.854C19.9009 512.174 20.1377 512.44 20.4988 512.651C20.52 512.675 20.5206 512.662 20.5083 512.626C21.3683 514.016 23.8137 516.161 24.5754 517.379C26.4923 520.442 27.9821 523.693 29.4961 526.882C32.6948 533.622 35.6621 540.429 38.5386 547.25C39.2084 548.839 39.9065 550.419 40.6187 551.994C33.2769 541.405 23.4826 531.791 10 526.287C14.6049 528.63 17.624 533.037 20.7339 536.412C24.4846 540.483 28.4351 544.444 32.1929 548.51C36.6253 553.307 41.8405 558.358 46.1038 563.666C50.2333 572.336 54.2462 581.015 56.7234 590.128C55.7084 586.98 56.6438 582.628 56.4701 579.324C56.3322 576.693 56.0247 574.084 55.6035 571.48C56.1243 572.655 56.5732 573.83 56.7764 574.924C56.5908 573.09 56.377 571.268 56.1472 569.455C56.7369 567.758 57.316 566.175 57.7072 564.87C59.7118 558.179 62.0988 551.602 65.3495 545.193C68.3574 539.264 71.8077 533.41 75.5673 527.735C77.321 525.089 79.099 522.453 80.866 519.812C82.022 518.083 83.123 515.316 84.733 513.659C74.3261 523.174 62.956 532.757 56.3534 544.174Z" fill="#EDE0D4"/>
<path fill-rule="evenodd" clip-rule="evenodd" d="M687.633 109.827C684.65 99.876 677.646 92.087 670.375 84.9511C656.22 71.0582 648.607 62.4684 643.562 42.1457C640.595 30.1934 637.575 17.5277 628.165 8.8562C621.313 2.5414 609.521 -2.7641 600.358 1.7577C586.261 10.1717 582.475 27.4386 583.897 42.9001C585.659 62.0635 594.61 73.8797 611.807 80.938C621.497 84.9133 627.938 90.159 633.198 99.299C637.405 106.607 639.858 115.759 645.145 122.384C653.05 132.289 662.941 136.691 675.134 135.046C663.714 114.035 650.371 92.826 634.278 75.1352C632.771 73.3567 623.886 66.5492 625.678 63.5181C627.652 60.1807 636.774 72.7176 636.709 72.6418C641.386 78.0103 645.714 83.7152 649.963 89.475C649.953 89.48 649.94 89.484 649.928 89.489C654.304 95.4 658.644 101.397 662.902 107.469C664.624 110.038 666.3 112.639 667.905 115.306C670.259 119.219 673.996 130.325 677.849 132.731C678.673 133.245 679.436 133.533 680.148 133.651C682.777 137.956 685.335 142.295 687.768 146.685C694.121 158.151 699.574 170.257 702.076 183.202C702.807 186.981 702.29 201.114 704.869 203.842C709.585 208.831 708.203 199.223 707.921 196.323C705.579 172.31 696.958 151.852 684.441 131.664C688.286 126.642 688.842 113.859 687.633 109.827Z" fill="#EDE0D4"/>
<path fill-rule="evenodd" clip-rule="evenodd" d="M526.131 121.43C531.102 115.573 543.052 114.579 550.361 114.971C559.404 115.456 568.694 117.658 577.298 120.32C591.471 124.704 605.244 132.706 617.727 140.451C619.231 141.384 637.764 152.529 636.124 154.485C634.498 156.423 616.305 143.184 612.25 140.902C603.597 136.032 595.662 130.272 586.124 127.055C576.249 123.724 565.805 122.405 555.42 122.496C554.087 122.508 549.74 121.579 549.646 123.551C549.554 125.479 556.748 124.473 558.016 124.485C563.255 124.533 568.527 125.026 573.691 125.934C583.368 127.635 592.465 131.061 600.753 136.317C598.44 141.694 592.897 144.173 587.081 142.827C582.055 141.664 577.156 138.795 572.234 137.966C568.845 137.395 565.451 137.735 562.164 138.69C553.494 141.209 548.494 146.371 538.961 142.78C531.489 139.966 518.991 129.853 526.131 121.43Z" fill="#EDE0D4"/>
<path fill-rule="evenodd" clip-rule="evenodd" d="M504.752 27.0513C493.714 26.2462 481.388 35.0557 476.063 44.2232C471.771 51.6147 472.494 61.3207 475.145 69.1734C476.92 74.4307 480.795 81.9263 487.257 81.9994C495.341 82.0908 495.73 72.2066 495.887 66.4283C496.094 58.7462 497.076 52.054 503.195 46.8177C503.95 46.1715 504.743 45.5664 505.536 44.9614C506.239 44.4243 506.943 43.8873 507.62 43.3217C507.728 43.2313 507.837 43.1408 507.946 43.0501C510.11 41.251 512.382 39.3615 512.659 36.3961C513.06 32.0986 510.608 31.3252 506.864 32.1236C506.743 32.1493 506.415 32.2724 505.969 32.4397C504.057 33.1566 499.977 34.6865 500.749 32.8577C501.039 32.1686 502.101 31.6225 503.44 31.2134C506.907 30.8405 511.042 30.4078 512.231 30.6663C525.058 33.4502 530.052 51.0278 531.378 62.1957C531.529 63.4603 531.649 64.7292 531.753 66H534.105C533.94 63.0154 533.725 60.0357 533.221 57.0845C531.331 46.0223 525.419 29.7749 512.455 27.9794C511.977 27.9125 510.217 27.9012 508.086 28.0249C507.076 27.4665 505.945 27.1289 504.752 27.0513Z" fill="#EDE0D4"/>
<path fill-rule="evenodd" clip-rule="evenodd" d="M406.884 196.303C399.39 200.823 392.026 203.008 388.571 202.116C379.903 199.881 379.107 168.143 385.813 155.631C392.518 143.12 426.992 137.666 428.729 162.456C429.332 171.06 425.724 178.738 420.392 185.004L429.952 229.613H402.18L406.884 196.303Z" fill="#915B3C"/>
<path fill-rule="evenodd" clip-rule="evenodd" d="M422.525 190.584C426.011 175.06 435.941 164.479 434.425 157.54C432.908 150.602 426.341 148.911 426.341 148.911C426.341 148.911 422.943 135.155 404.429 137.209C385.915 139.263 374.616 146.96 379.496 163.895C383.981 163.895 389.397 162.271 396.884 165.054C400.448 166.378 401.983 173.267 401.983 173.267H405.366C405.366 173.267 410.293 165.092 415.081 167.258C419.87 169.425 417.258 177.785 417.258 177.785L418.925 190.584H422.525Z" fill="black"/>
<path fill-rule="evenodd" clip-rule="evenodd" d="M507.485 374.41C517.711 374.41 526 382.708 526 392.945V499.516C526 509.752 517.711 518.05 507.485 518.05H374.407C364.181 518.05 355.892 509.752 355.892 499.516V392.945C355.892 382.708 364.181 374.41 374.407 374.41H507.485ZM488.97 406.845C491.526 406.845 493.598 408.92 493.598 411.479V480.982C493.598 483.54 491.526 485.615 488.97 485.615H392.922C390.366 485.615 388.293 483.54 388.293 480.982V411.479C388.293 408.92 390.366 406.845 392.922 406.845H488.97Z" fill="#656D4A"/>
<path fill-rule="evenodd" clip-rule="evenodd" d="M241.145 512.258C263.96 484.369 279.397 463.693 287.457 450.231C301.257 427.18 312.551 406.669 316.115 398.834C324.615 380.15 296.548 371.402 290.196 380.117C280.582 393.306 260.05 434.812 228.6 504.632L241.145 512.258Z" fill="#915B3C"/>
<path fill-rule="evenodd" clip-rule="evenodd" d="M287.897 504.149L330.358 397.158C339.44 377.654 295.583 364.833 288.909 373.91C273.757 394.516 237.743 475.808 233.228 481.948L287.897 504.149Z" fill="#DDB892"/>
<path fill-rule="evenodd" clip-rule="evenodd" d="M400.984 482.692C392.712 470.615 362.628 429.983 346.242 413.171C341.533 408.341 336.938 403.704 332.592 399.382C319.676 386.539 293.954 408.126 306.847 419.825C338.956 448.958 385.804 488.287 389.718 491.794C395.204 496.709 406.182 490.282 400.984 482.692Z" fill="#915B3C"/>
<path fill-rule="evenodd" clip-rule="evenodd" d="M395.625 477.721C396.427 476.627 397.979 476.368 399.016 477.241C400.908 478.834 403.628 481.287 404.611 482.99C406.175 485.703 408.275 491.431 408.275 491.431C405.13 493.249 351.751 524.099 351.751 524.099C351.751 524.099 345.343 518.081 349.754 514.756C354.166 511.431 357.035 509.148 357.035 509.148L376.545 482.241C376.928 481.712 377.671 481.605 378.187 482.003L382.241 485.127C382.241 485.127 387.82 484.641 390.567 483.053C392.24 482.085 394.283 479.554 395.625 477.721Z" fill="black"/>
<path fill-rule="evenodd" clip-rule="evenodd" d="M247.752 506.795C248.992 506.249 250.466 506.802 250.928 508.077C251.77 510.402 252.901 513.89 252.901 515.856C252.901 518.989 251.858 525 251.858 525C248.227 525 186.59 525 186.59 525C186.59 525 184.045 516.581 189.527 515.909C195.008 515.238 198.634 514.697 198.634 514.697L228.97 501.159C229.565 500.893 230.262 501.172 230.511 501.776L232.461 506.511C232.461 506.511 237.535 508.881 240.708 508.881C242.639 508.881 245.673 507.71 247.752 506.795Z" fill="black"/>
<path fill-rule="evenodd" clip-rule="evenodd" d="M345.636 402.501C345.636 402.501 398.573 393.869 416.552 390.695C450.716 384.664 460.678 366.261 454.788 326.108H391.841C379.346 329.72 287.423 370.787 287.423 370.787C276.397 376.266 278.45 392.421 280.466 397.743C280.589 398.068 336.228 493.391 336.228 493.391L387.721 460.555L345.539 406.37C345.539 406.37 343.868 403.002 345.636 402.501Z" fill="#DDB892"/>
<path fill-rule="evenodd" clip-rule="evenodd" d="M304.189 338.078L341.101 310.944L349.261 331.136L312.708 346.309C302.37 358.465 296.59 363.533 295.365 361.512C294.334 359.808 295.141 358.213 295.884 356.743C296.462 355.598 297.002 354.53 296.605 353.547C295.696 351.3 288.752 351.537 282.172 352.043C275.591 352.549 277.509 349.619 279.096 348.171C285.813 344.147 294.177 340.783 304.189 338.078ZM497.767 385.888C494.376 379.001 482.827 311.881 482.827 311.881L458.645 311.976C458.645 311.976 481.042 384.353 482.827 388.781C485.146 394.534 481.207 402.892 478.536 408.56C478.123 409.436 477.74 410.248 477.415 410.977C481.121 412.637 482.902 410.631 484.779 408.515C486.898 406.126 489.142 403.597 494.422 406.056C496.462 407.007 498.393 408.13 500.279 409.228C506.794 413.018 512.779 416.501 520.921 411.472C522.211 410.675 523.627 407.673 520.208 405.328C511.695 399.482 499.425 389.255 497.767 385.888Z" fill="#915B3C"/>
<path fill-rule="evenodd" clip-rule="evenodd" d="M414.104 210.305L404.098 208.587C366.972 240.691 351.722 302.369 306.214 335.043L317.167 348.634C396.116 338.849 415.684 263.617 414.104 210.305Z" fill="#9C6644"/>
<path fill-rule="evenodd" clip-rule="evenodd" d="M457.725 336.184C457.725 336.184 397.541 336.184 369.187 336.184C365.14 336.184 365.902 330.336 366.488 327.385C373.237 293.328 399.586 256.617 399.586 208.137L425.125 204.128C446.249 238.136 453.553 280.008 457.725 336.184Z" fill="#EDE0D4"/>
<path fill-rule="evenodd" clip-rule="evenodd" d="M467.681 360.51C471.66 370.077 475.562 378.424 479.239 384.836H498.227C500.27 318.714 475.263 267.836 454.332 237.157C458.98 236.825 463.174 234.879 465.826 230.089C475.16 213.229 471.789 203.945 461.814 200.894C456.327 199.217 451.168 200.362 444.994 201.733C439.94 202.854 434.205 204.127 427.055 204.128C427.052 204.128 427.05 204.128 427.048 204.128C426.355 204.128 425.724 204.175 425.151 204.264L416.677 204.748C416.677 204.748 382.27 321.478 397.699 360.51H467.681Z" fill="#9C6644"/>
<path fill-rule="evenodd" clip-rule="evenodd" d="M467.681 360.51C462.459 347.958 457.106 333.306 451.954 318.176C450.036 334.839 446.842 351.574 441.524 360.51H467.681Z" fill="black" fill-opacity="0.1"/>
</svg>
