<svg width="253" height="888" viewBox="0 0 253 888" fill="none" xmlns="http://www.w3.org/2000/svg">
<path fill-rule="evenodd" clip-rule="evenodd" d="M191.94 448.736C210.6 480.052 232.34 510.374 245.4 544.613C244.87 540.577 244.32 536.545 243.69 532.52C240.38 511.179 236.26 489.994 231.94 468.835C229.73 458.062 227.4 447.327 225.01 436.594C223.73 430.829 222.46 425.061 221.15 419.302C220.83 417.906 220.55 415.469 220.16 413C232.84 454.637 245.08 496.305 254.03 538.942C255.2 544.538 256.2 550.124 257.02 555.7C257.3 554.428 257.58 553.156 257.88 551.887C261.5 536.68 266.93 521.594 273.4 507.374C276.49 500.575 280.05 493.924 284.23 487.726C286.84 483.863 292.99 479.271 295.36 475.314C282.35 499.176 277.66 529.032 270.15 554.973C268.31 561.304 266.47 567.624 264.66 573.955C275.99 551.237 293.56 532.571 318 524.483C288.42 544.027 270.68 578.254 258.72 613.26C258.68 613.675 258.64 614.09 258.6 614.506C262.11 607.829 266.55 601.789 272.55 597.56C285.41 588.504 299.67 591.142 312.14 598.91C302.35 592.689 284.66 598.354 276.43 604.677C270.53 609.203 265.49 615.275 261.12 621.2C260.07 622.62 258.64 624.277 257.13 626.044C255.01 639.795 251.56 653.452 246.67 667C247.48 663.111 246.9 656.892 247.12 653.993C247.14 653.68 247.16 653.365 247.19 653.053C246.44 656.019 245.73 658.951 245.04 661.837C246.41 656.331 247.16 650.583 247.74 644.776C247.89 642.281 248.04 639.785 248.19 637.29C248.14 632.553 247.95 627.799 247.62 623.036C246.45 618.408 245.14 614.042 244.06 610.411C240.16 597.31 234.44 584.76 227.41 573.051C220.99 562.366 213.31 552.688 204.44 543.935C199.66 539.217 194.66 534.725 189.73 530.17C187.95 528.523 184.76 524.474 182 522.363C202.08 533.434 222.75 545.41 237.4 563.248C235.68 556.653 233.81 550.151 231.84 543.78C221.83 511.454 209.19 477.953 191.94 448.736Z" fill="#414833"/>
<path fill-rule="evenodd" clip-rule="evenodd" d="M211 628.5C211 664.399 213.84 693.5 252 693.5C290.16 693.5 293 664.399 293 628.5" fill="#EDE0D4"/>
<path fill-rule="evenodd" clip-rule="evenodd" d="M182.99 191.729C185.76 184.495 189.73 177.697 193.49 170.95C199.53 160.112 206.46 151.181 217.41 145.258C235.21 135.625 254.42 132.421 274.25 133.516C284.58 134.087 295.13 135.66 304.84 139.342C309.15 140.981 313.36 142.909 317.51 144.926C320.08 146.171 322.6 147.502 325.12 148.857C326.63 149.674 329.34 150.506 330.3 152.018C331.46 153.835 330.25 156.427 328.06 156.488C326.19 156.541 323.94 154.67 322.31 153.829C318.54 151.892 314.69 150.159 310.8 148.514C304.71 145.948 298.61 143.99 292.13 142.781C279 140.331 265.13 140.177 251.87 141.91C256.57 153.071 255.06 164.221 249.09 174.628C240.58 189.444 229.94 200.633 214.57 208.056C204.59 212.876 194.34 213.071 183.77 210.7C181.77 210.251 179.05 209.344 178.42 207.05C177.82 204.842 179.44 201.892 180.11 199.815C180.99 197.091 181.96 194.404 182.99 191.729Z" fill="#656D4A"/>
<path fill-rule="evenodd" clip-rule="evenodd" d="M280.26 53.5015C262.37 48.4113 244.52 43.4878 226.11 40.543C215.26 38.8082 204.32 37.849 193.41 36.5632C194.74 36.8263 196.06 37.1221 197.37 37.449C194.06 37.2068 190.41 38.095 187.03 38.0562C183.25 38.013 179.46 37.6573 175.7 37.2565C168.39 36.475 161.1 35.5772 153.75 35.0751C145.56 34.5163 137.33 34.3834 129.13 34.0324C122.17 33.7345 114.97 33.1658 107.99 33.6662C104.19 33.9387 100.23 33.9471 96.38 34.1646C95.09 34.2376 81.27 33.6885 81.28 33.6544C81.6 32.9076 88.08 32.3586 89.05 32.2255C91.9 31.8357 94.7499 31.689 97.6099 31.532C95.0099 29.8331 92.59 27.8661 90.54 25.5127C89.91 24.7864 85.17 19.5673 85.55 18.6829C85.74 18.2412 95.12 27.0505 95.87 27.9815C96.49 28.7376 97.16 29.9501 97.89 30.5821C99.06 31.6031 98.8199 31.2308 100.2 31.3887C102.73 31.6782 105.56 31.1372 108.12 31.1261C109.49 31.1062 114.02 31.5488 116.33 31.086C123.82 30.5488 132.26 31.4984 139.91 31.9193C136.87 30.0163 134.11 27.7866 131.57 25.2451C130.96 24.6421 125.19 19.4337 125.48 18.7617C125.8 18.0054 135.39 25.5056 136.16 26.2968C137.59 27.7663 138.78 29.6301 140.29 30.9897C141.95 32.4819 144.19 32.0533 146.49 32.1511C154.95 32.5112 163.34 33.2409 171.74 34.2204C171.57 19.0739 156.22 9.54583 144.46 3.55901C135.99 -0.755383 126.53 -3.18316 117.16 -4.66257C104.66 -6.63717 91.7299 -6.51168 79.0899 -5.92245C64.3599 -5.23589 49.993 -1.78133 36.273 3.91499C29.097 6.89415 22.289 10.8675 15.716 15.0485C12.505 17.0908 9.59799 19.3558 7.06399 22.2567C5.92299 23.5649 4.90093 24.9717 3.95693 26.4315C3.23993 27.5406 1.09597 29.5141 0.957968 30.6281C-0.238032 39.6948 0.903973 47.3789 5.82497 55.0537C10.483 62.319 17.142 68.4317 24.174 73.2472C32.005 78.609 40.459 82.696 49.698 84.8855C56.75 86.5561 64.0099 87.3555 71.2199 88.1251C96.8399 90.8629 126.3 89.0887 147.96 72.6265C154.97 67.2981 160.64 60.4853 165.28 52.994C166.38 51.2288 167.46 49.4594 168.37 47.592C168.99 46.3333 169.93 41.7297 170.88 41.0326C172.19 40.0768 176.81 41.1775 178.61 41.2854C192.29 42.1074 205.92 43.4346 219.5 45.1585C233.96 46.9929 248.22 49.6327 262.42 52.8195C268.46 54.1752 274.48 55.5535 280.48 57.0976C281.87 57.4563 285.91 59.4166 287.61 58.6267C288.68 58.1272 288.87 56.853 288.18 55.9892C286.97 54.4869 282.09 54.0226 280.26 53.5015Z" fill="#414833"/>
<path fill-rule="evenodd" clip-rule="evenodd" d="M206.36 91.6799C205.67 91.4443 194.54 92.5864 194.58 91.4671C194.59 90.9865 198.9 90.6448 199.5 90.623C201.84 90.5375 204.14 90.988 206.36 91.6799ZM216.69 72.5498C216.71 72.6186 219.04 73.9362 219.71 74.3652C221.14 75.2767 222.54 76.2439 223.9 77.2348C221.66 75.3871 219.51 73.7238 216.69 72.5498ZM144.07 136.126C143.15 137.143 140.96 136.49 142.22 135.29C143.24 134.322 143.14 134.288 143.12 133.024C143.11 131.997 142.83 130.896 142.73 129.861C142.54 127.667 142.5 125.49 142.73 123.298C143.21 118.598 144.49 114.054 146.38 109.754C149.68 102.25 153.88 94.7068 159.58 88.8478C168.63 79.5318 180.85 72.2285 192.92 68.0944C200.39 65.5338 207.85 64.279 215.44 67.125C219.23 68.547 222.81 70.7105 225.59 73.7634C226.32 74.5616 226.87 75.5988 227.64 76.3488C228.81 77.5021 228.43 77.2339 230.19 76.5753C232.11 75.8559 234.03 75.1437 235.96 74.4367C241 72.5863 246.09 70.7694 251.3 69.4816C253.02 69.0573 254.75 68.7461 256.5 68.5382C257.83 68.3804 262.88 67.369 264.19 68.4549C266.37 70.2616 262.91 70.8728 261.73 70.8859C260.69 70.8971 259.66 70.9499 258.63 71.042C256.04 71.2739 253.48 71.7703 250.96 72.4441C248.25 73.1721 245.57 74.088 242.9 74.9979C240.42 75.8469 237.95 76.7402 235.48 77.653C234.11 78.1598 232.75 78.6734 231.38 79.1871C230.91 79.3624 229.95 79.4265 230.33 79.949C227.41 80.9563 224.62 82.6667 221.87 84.069C218.5 85.787 215.13 87.5426 211.91 89.5404C209.58 90.9814 207.3 92.5051 205.13 94.184C203.86 95.1651 202.67 96.2197 201.51 97.3445C200.88 97.9626 198.19 100.054 198.16 100.935C198.17 100.556 201.56 98.9626 201.96 98.7096C203.57 97.6989 205.1 96.5943 206.63 95.4655C209.48 93.3708 212.41 91.4379 215.48 89.7041C215.78 90.247 214.24 92.4047 213.94 93.0536C213.26 94.5089 212.67 96.0089 212.21 97.5507C211.38 100.266 210.44 103.588 210.34 106.295C210.37 105.497 211.73 103.692 212.12 102.874C212.73 101.564 213.29 100.218 213.77 98.8496C214.21 97.5866 214.55 96.2969 214.88 94.9977C215.2 93.6977 215.29 91.3309 216.03 90.164C216.07 90.0935 216.75 90.1926 216.94 89.9171C217.13 89.6396 217.1 88.8239 217.15 88.7596C217.91 87.8099 220.06 87.2038 221.12 86.654C223.88 85.2275 226.65 83.841 229.42 82.4397C230.28 82.0055 230.88 81.4082 231.55 81.8416C232.26 82.3041 232.64 84.3814 232.88 85.1963C233.76 88.2221 233.99 91.2639 233.37 94.363C232.2 100.168 229.5 105.146 225.78 109.587C211.5 126.597 193.79 140.332 171.77 143.927C162.65 145.414 148.46 146.86 144.07 136.126Z" fill="#414833"/>
<path fill-rule="evenodd" clip-rule="evenodd" d="M162.11 720.687C165.68 719.911 169.61 719.97 173.25 720.034C192.73 720.298 211.86 729.485 224.31 744.164C234.91 756.66 237.82 772.196 239.91 787.901C240.12 789.461 240.21 791.01 240.33 792.573C240.35 792.908 240.39 793.207 240.43 793.489C241.25 794.222 241.69 795.077 241.2 796.016C243.01 799.97 244.55 804.025 245.86 808.206C249.74 820.515 253.68 833.057 251.25 846C250.69 838.877 249.49 831.594 248.07 824.589C247.98 824.186 247.89 823.787 247.8 823.39C247.79 823.348 247.78 823.306 247.77 823.264C247.27 821.119 246.61 819.038 245.81 816.989C245.81 816.967 245.8 816.945 245.79 816.923C245.68 816.653 245.57 816.385 245.46 816.117C245.23 815.562 245 815.008 244.75 814.457C244.66 814.269 244.58 814.079 244.5 813.889C243.34 811.05 242.85 807.852 241.81 804.915C241.56 804.247 241.3 803.581 241.03 802.92C241.01 802.881 240.99 802.842 240.98 802.803C240.24 801.022 239.42 799.263 238.56 797.523C238.09 797.172 237.84 796.302 237.44 795.512C237.36 795.356 236.7 794.317 236.51 793.719C236 792.741 235.5 791.762 234.99 790.786C235 790.792 235.02 790.798 235.03 790.803C234.52 789.866 234.01 788.932 233.5 788.003C233.39 787.799 233.27 787.594 233.16 787.389C232.98 787.063 232.79 786.737 232.61 786.412C230.91 783.371 229.1 780.39 227.22 777.446C226.55 776.396 224.94 774.89 224.64 773.71C224.63 773.666 224.62 773.625 224.62 773.583C220.54 767.879 215.85 762.618 210.22 758.45C210.9 759.182 212.34 761.669 212.73 762.161C213.9 763.668 215.17 765.071 216.44 766.491C218.73 769.034 220.95 771.659 222.94 774.434C226.56 779.509 229.68 784.851 232.64 790.299C232.67 790.331 232.7 790.362 232.72 790.394C234.21 792.217 235.14 794.973 236.21 797.059C231.98 795.107 227.3 793.836 222.96 792.103C218.63 790.375 214.42 788.452 210.36 786.192C204.95 783.19 199.34 779.8 194.24 775.963C188.39 772.348 183.47 767.372 179.13 762.149C173.99 755.971 169.29 749.738 166.38 742.235C164.95 738.549 163.82 734.705 163.15 730.816C163.13 730.646 163.09 730.462 163.05 730.271C162.37 728.928 161.76 727.555 161.24 726.15C160.43 723.921 158.51 721.47 162.11 720.687Z" fill="#414833"/>
<path fill-rule="evenodd" clip-rule="evenodd" d="M60.1299 810.096C59.3399 812.691 59.9999 814.975 63.1099 814.331C64.0399 814.138 64.9999 813.829 65.9199 813.569C71.0299 812.123 76.0899 810.534 81.2299 809.18C91.1099 806.576 101.14 805.315 111.27 804.146C119.24 803.226 127.27 802.672 135.27 803.025C145.12 803.461 154.73 805.376 164.27 807.581C174.09 809.851 184.17 812.659 193.63 816.33C204.4 820.504 214.32 825.66 224.16 831.622C248.48 846.356 270.1 864.757 289.01 885.887C291.73 888.929 294.44 891.982 297.15 895.038C299.19 897.341 301.11 899.743 303.14 902.055C304.81 903.969 306.78 902.878 305.48 900.636C304 898.061 301.46 895.748 299.53 893.516C297.8 891.524 296.07 889.534 294.35 887.543C292.32 885.21 290.29 882.888 288.21 880.603C278.55 869.969 268.18 859.892 257.24 850.544C248.94 843.443 239.97 837.227 230.77 831.313C220.2 824.517 208.98 817.408 196.88 813.385C196.76 813.208 196.6 813.026 196.43 812.844C198.79 810.721 191.57 803.573 190.27 802.179C186.96 798.638 183.33 795.343 179.6 792.245C176.54 789.702 173.27 787.484 169.7 785.713C164.39 783.088 158.64 781.526 152.79 780.514C142.65 778.761 132 777.811 121.66 778.67C102.78 780.239 84.1999 786.08 69.2099 798.206C65.3799 801.31 61.5799 805.329 60.1299 810.096Z" fill="#414833"/>
<path fill-rule="evenodd" clip-rule="evenodd" d="M210.03 830C202.19 830 195.21 831.02 187.98 834.14C181.74 836.833 176.06 840.398 170.54 844.279C162.78 849.738 156.66 856.091 152.38 864.508C149.82 869.537 147.95 876.653 149.66 882.138C151.69 888.598 157.24 893.986 164.56 892.847C169.08 892.144 173.23 889.146 176.67 886.325C180.78 882.95 184.07 878.891 186.79 874.384C191.23 867.031 193.84 858.718 197.6 851.035C199.39 847.389 201.12 843.716 203.26 840.25C204.32 838.534 205.45 836.834 207.06 835.559C207.92 834.877 211.55 833.696 210.16 832.164C230.5 832.431 248.52 848.068 252.42 867.423C252.79 869.227 253.07 871.045 253.37 872.861C253.56 874.007 253.48 878.233 254.51 878.965C256.77 880.581 255.82 875.674 255.72 874.968C255.47 873.142 255.2 871.317 254.92 869.496C253.4 859.591 248.99 850.382 241.64 843.317C233.24 835.239 221.91 830 210.03 830Z" fill="#414833"/>
<path fill-rule="evenodd" clip-rule="evenodd" d="M211 628.5C211 664.399 213.84 693.5 252 693.5C290.16 693.5 293 664.399 293 628.5" fill="#EDE0D4"/>
</svg>
